<svg fill="#000000" version="1.1" id="Capa_1" xmlns="http://www.w3.org/2000/svg"
                                        xmlns:xlink="http://www.w3.org/1999/xlink" viewBox="0 0 554.658 554.658"
                                        xml:space="preserve">
                                        <g>
                                            <g>
                                                <path d="M533.188,465.415l-56.515,41.76c-3.385,2.505-10.461,2.715-14.009,0.363l-49.515-32.646
                                   c-12.737-8.415-32.016-8.511-44.801-0.182l-50.71,32.904c-3.901,2.506-11.818,2.562-15.749,0.096l-52.69-33.277
                                   c-13.148-8.281-32.426-7.487-44.838,1.854l-40.937,30.83c-3.385,2.562-10.404,2.802-13.971,0.487l-50.691-32.876
                                   c-13.33-8.673-32.627-7.516-44.829,2.678L4.849,518.342c-5.718,4.763-6.483,13.254-1.74,18.973
                                   c2.687,3.193,6.521,4.848,10.366,4.848c3.041,0,6.11-1.032,8.625-3.127l49.084-40.937c3.118-2.61,9.486-2.983,12.891-0.774
                                   l50.71,32.895c13.11,8.521,32.407,7.822,44.857-1.568l40.937-30.829c3.395-2.592,10.586-2.897,14.21-0.593l52.709,33.277
                                   c12.813,8.08,32.054,7.966,44.791-0.277l50.71-32.904c3.825-2.468,11.522-2.429,15.3,0.076l49.515,32.637
                                   c13.015,8.616,32.331,8.109,44.877-1.166l56.514-41.77c5.977-4.428,7.229-12.871,2.821-18.848
                                   C547.607,462.24,539.164,460.977,533.188,465.415z" />
                                                <path
                                                    d="M255.894,394.117L397.792,345.5c9.983-3.423,19.632-14.64,20.492-25.178c11.16-135.214-106.392-256.285-218.542-306.354
                                   c-9.648-4.293-16.467,1.167-14.984,11.628l50.366,355.793C236.606,391.84,245.901,397.549,255.894,394.117z" />
                                                <path d="M107.952,447.781l48.052,31.174l39.732-29.921c16.725-12.594,43.366-13.713,61.114-2.544l16.199,10.232
                                   c14.287-4.857,30.285-10.28,47.746-16.218c52.556-17.834,90.814-55.147,107.846-74.215c5.604-6.282-1.874-26.45-8.874-22.472
                                   c-66.593,37.771-161.54,64.461-231.107,80.487c3.204-4.456,5.173-9.859,5.384-15.74l-20.378,9.706
                                   c-11.092-5.709-8.195-16.667-8.195-16.667l23.16-10.806c-5.068-7.066-13.177-11.81-22.539-12.077
                                   c-15.893-0.431-29.127,12.105-29.558,28.018c-0.297,11.016,5.718,20.655,14.697,25.732c-16.409,3.376-29.931,5.91-39.273,7.574
                                   C109.358,440.523,108.153,443.641,107.952,447.781z" />
                                            </g>
                                        </g>
                                    </svg>